<svg width="111" height="39" viewBox="0 0 111 39" fill="none" xmlns="http://www.w3.org/2000/svg">
<g filter="url(#filter0_i_71:3)">
<path d="M20.6414 18.1065C20.2667 16.1403 17.6305 15.0579 15.0128 16.4469L15.688 18.6928L16.7517 22.0164L17.2328 23.5272C19.1891 22.3005 21.164 20.8259 20.6414 18.102V18.1065ZM18.0421 21.128C17.7442 20.1702 17.4405 19.2141 17.131 18.2598L16.8581 17.3444C17.3703 17.2366 17.9042 17.2887 18.3844 17.4932C18.6295 17.6104 19.0596 17.872 19.1521 18.3771C19.3695 19.5045 18.981 20.3118 18.0421 21.119V21.128ZM60.1666 14.9858C59.8051 14.661 59.379 14.4123 58.9146 14.2552C58.4503 14.0981 57.9577 14.0359 57.4676 14.0725C56.9775 14.1091 56.5004 14.2437 56.066 14.4679C55.6316 14.6922 55.2493 15.0012 54.9427 15.3759C54.6362 15.7505 54.412 16.1827 54.2843 16.6455C54.1565 17.1083 54.1278 17.5918 54.2001 18.0658C54.2723 18.5399 54.4439 18.9943 54.7042 19.4009C54.9644 19.8075 55.3077 20.1575 55.7127 20.429L60.421 15.2293C60.3393 15.1451 60.2544 15.0639 60.1666 14.9858V14.9858ZM55.722 18.6477C55.4942 18.2426 55.3996 17.779 55.4509 17.3197C55.5021 16.8604 55.6969 16.4276 56.0087 16.0798C56.3205 15.7319 56.7344 15.4859 57.1943 15.3749C57.6543 15.2639 58.1381 15.2934 58.5803 15.4593L55.722 18.6477ZM90.6454 19.6624C90.6883 19.8166 90.7085 19.9761 90.7055 20.1359C90.6592 21.1055 89.7204 21.8586 88.6058 21.8045C87.4911 21.7684 86.617 20.9431 86.6633 19.978C86.6956 19.0626 87.5281 18.3455 88.5549 18.3004C88.3543 18.2563 88.1499 18.2307 87.9444 18.2238C86.0712 18.1471 84.545 19.4414 84.4849 21.0468C84.4063 22.7605 85.8215 24.1676 87.6576 24.2442C89.5354 24.3119 91.057 23.0176 91.1264 21.3084C91.1463 20.7248 90.9798 20.1497 90.65 19.6624H90.6454ZM33.9706 21.6286C33.9706 22.6027 33.0595 23.3874 31.9449 23.3874C30.8256 23.3874 29.9191 22.6072 29.9191 21.6286C29.9191 20.7176 30.7192 19.969 31.7414 19.8788C31.54 19.8429 31.3356 19.8248 31.1309 19.8247C29.2624 19.8247 27.787 21.1776 27.787 22.7831C27.787 24.5058 29.267 25.8497 31.0985 25.8497C32.9716 25.8497 34.4424 24.5058 34.4424 22.7831C34.4401 22.2015 34.2472 21.6358 33.892 21.1686C33.9383 21.3039 33.9706 21.4617 33.9706 21.6286V21.6286ZM102.273 11.7749L101.44 15.1075L100.672 11.4096L90.4141 9.21334L90.4881 14.7738L92.0329 15.1121L91.9219 16.1177L91.8756 16.0861C89.9609 15.103 87.5882 15.0038 85.3544 15.8246C84.6005 16.0952 83.9021 16.4695 83.2731 16.9159L81.7238 7.39142H74.9019L74.7169 8.49179H67.5343L66.7156 13.3848L66.1144 12.6678C65.2596 11.6468 64.1842 10.8224 62.965 10.2533C61.7458 9.68429 60.4129 9.38461 59.0613 9.37569L65.157 6.17831L60.9113 0L53.2199 8.62708L54.5472 10.2055C53.3953 10.6585 52.3386 11.3143 51.43 12.1401L44.844 6.43987L42.5454 10.7376L42.6333 6.60673L32.338 9.81764L32.6016 15.2113L34.3545 14.7693L34.6135 17.4977C32.6109 16.6273 30.2012 16.6408 27.972 17.5608C27.3203 17.8388 26.7015 18.1851 26.1266 18.5935C26.5345 17.0069 26.4097 15.3346 25.7705 13.8223C24.9996 12.1031 23.6724 10.6775 21.9919 9.76353C20.7901 8.99788 19.4189 8.52179 17.9913 8.37454C14.43 7.76573 10.1473 8.38807 5.9385 10.1423C4.44873 10.7519 3.01317 11.4804 1.6465 12.3205L0 13.3397L0.994375 14.9768L4.07925 20.0592C4.07925 20.0592 5.02275 21.6196 5.02738 21.6151L6.697 20.8168L6.92825 20.7131L14.5965 37.3991L15.3365 39L17.0478 38.4679L21.1917 37.1691L23.014 36.6053L22.533 34.8015L20.3315 26.5532C20.9651 26.0977 21.5525 25.6107 22.1029 25.1056C21.978 26.0932 22.0428 27.0899 22.3203 28.0459C22.8938 30.0437 24.2443 31.6221 26.1035 32.4925C28.1154 33.4395 30.5666 33.4395 32.8375 32.5015C33.9799 32.0325 34.9974 31.3425 35.8484 30.5217L36.1629 33.8048L43.4241 32.7631L43.4149 26.4179L58.5941 33.7236V26.6434C60.7911 26.4303 62.9156 25.7598 64.824 24.6772L64.1858 28.4788L72.372 29.7371L72.8206 26.8644L74.9527 30.7157L76.2616 28.2579L76.7426 32.2941L86.0157 33.8815L85.5255 30.8419C87.1811 31.0146 88.8521 30.7038 90.3263 29.949L89.9563 33.187L96.1352 34.0393L96.1815 36.5061L102.61 38.4814L111 13.8403L102.273 11.7749ZM66.0173 15.4277L66.4428 14.9903L65.9247 18.102L64.5881 16.9204L66.0173 15.4277ZM60.5736 2.74191L62.826 5.72282L56.3973 8.83002L55.9486 8.1716L60.5736 2.74191ZM18.0144 25.7009L20.5812 35.2975L16.428 36.5918L7.91337 18.0479C7.45087 18.2869 6.59988 18.6792 5.809 19.0535L2.72875 13.9756C3.959 13.2135 5.30025 12.537 6.72938 11.9462C10.7439 10.2821 14.578 9.78157 17.6444 10.3137C18.722 10.4355 19.869 10.7421 20.8819 11.396C22.2601 12.1537 23.31 13.227 23.9205 14.6025C25.4005 17.9396 22.9261 22.7515 18.019 25.7009H18.0144ZM37.0971 23.9962C37.0509 25.4303 36.5097 26.8553 35.6125 28.0685C34.7338 29.2682 33.5361 30.2116 32.1484 30.7968C28.5455 32.285 24.9472 30.7968 23.9899 27.4596C23.051 24.2397 25.2201 20.4019 28.7074 18.9363C30.9412 18.0253 33.1751 18.2373 34.7754 19.2971C35.7605 19.9555 36.519 20.9386 36.8705 22.1698C37.0424 22.765 37.1188 23.3826 37.0971 24.0007V23.9962ZM56.6886 30.7788L41.6389 23.4325L41.6666 31.1306L37.7678 31.6492L37.4949 28.4788C38.6974 26.4675 39.1367 24.0954 38.5124 21.9217C38.182 20.7591 37.5441 19.7015 36.6624 18.8551L36.1028 12.3927L34.3591 12.8346L34.2805 11.2021L40.5335 9.3802L40.9174 15.6758L45.5285 9.36216L50.0332 13.5427L43.734 20.0186L49.654 22.305C50.3108 23.5227 51.319 24.5599 52.5862 25.3266C53.8072 26.0616 55.2132 26.4991 56.6979 26.6389V30.7788H56.6886ZM48.8724 20.1359L46.7726 19.3512L48.729 17.5022C48.6411 18.35 48.6827 19.2384 48.8677 20.1359H48.8724ZM65.2541 22.0615C63.8111 23.2295 62.1554 23.9872 59.9863 24.4968C59.5267 24.6047 59.06 24.6816 58.5895 24.7268C55.1346 25.056 52.2347 23.5091 51.134 21.0017C50.998 20.6978 50.8912 20.3823 50.8149 20.0592C50.3061 17.9487 50.7409 16.0591 51.8092 14.5799C52.122 14.1466 52.4869 13.7515 52.8961 13.4029C53.9714 12.4897 55.2615 11.8498 56.6516 11.5404C59.9446 10.7692 62.8445 11.7478 64.6205 13.8719L58.3536 20.3839C58.8903 20.4273 59.4307 20.3769 59.9492 20.2351C61.4431 19.8788 62.2803 19.1077 63.0156 18.2689L65.5224 20.4606L66.2809 21.137C65.9547 21.4617 65.612 21.7703 65.2541 22.0615V22.0615ZM78.5603 30.7517L77.2005 21.9398L75.2673 26.8012L72.3766 20.7221H72.3443L71.2065 27.7573L66.3919 26.9455L67.0671 23.0221C67.2494 22.8541 67.4282 22.6827 67.6036 22.508L69.1669 20.9386L67.6453 19.6127L69.264 10.2641H74.1202L75.332 16.7401L76.6918 9.2404H80.1697L81.6127 18.3771C79.7812 20.411 78.884 23.1574 79.5038 25.6603C79.7429 26.692 80.2305 27.6534 80.9261 28.465C81.6218 29.2766 82.5056 29.9152 83.5044 30.3278L83.6894 31.5139L78.5603 30.7517ZM90.5621 27.879C90.0237 28.2525 89.4375 28.5557 88.8185 28.781C87.6844 29.224 86.4448 29.3444 85.2434 29.1282C84.4981 28.9896 83.7917 28.6975 83.1714 28.2714C82.1647 27.5529 81.4584 26.5038 81.1826 25.3175C80.8126 23.8023 81.1502 22.1788 81.9874 20.7537C82.4082 20.0592 82.9447 19.4098 83.5784 18.8461C84.2814 18.2283 85.1046 17.7187 86.0157 17.3804C88.1386 16.6048 90.2337 16.8753 91.7045 17.9036C92.6886 18.5928 93.3823 19.6073 93.6562 20.7582C94.1095 22.5892 93.573 24.5373 92.389 26.1112C91.8806 26.7918 91.2639 27.3886 90.5621 27.879V27.879ZM101.398 36.1814L97.8372 35.1487L97.532 22.3501L95.7375 32.2264L91.8525 31.6176L92.1393 28.7765C94.6691 26.684 96.015 23.3874 95.2796 20.4065C94.9726 19.1164 94.2729 17.9468 93.2724 17.0512L93.6008 13.7005L92.1346 13.3172L92.2271 11.5313L98.9241 12.8392L101.176 23.2476L103.484 13.917L108.572 15.0173L101.398 36.1814Z" fill="#FFF500"/>
</g>
<defs>
<filter id="filter0_i_71:3" x="0" y="0" width="111" height="43" filterUnits="userSpaceOnUse" color-interpolation-filters="sRGB">
<feFlood flood-opacity="0" result="BackgroundImageFix"/>
<feBlend mode="normal" in="SourceGraphic" in2="BackgroundImageFix" result="shape"/>
<feColorMatrix in="SourceAlpha" type="matrix" values="0 0 0 0 0 0 0 0 0 0 0 0 0 0 0 0 0 0 127 0" result="hardAlpha"/>
<feOffset dy="4"/>
<feGaussianBlur stdDeviation="2"/>
<feComposite in2="hardAlpha" operator="arithmetic" k2="-1" k3="1"/>
<feColorMatrix type="matrix" values="0 0 0 0 1 0 0 0 0 0 0 0 0 0 0 0 0 0 0.8 0"/>
<feBlend mode="normal" in2="shape" result="effect1_innerShadow_71:3"/>
</filter>
</defs>
</svg>
