<svg width="207" height="209" viewBox="0 0 207 209" fill="none" xmlns="http://www.w3.org/2000/svg">
<g filter="url(#filter0_d)">
<path d="M201.245 111.918C203.788 109.378 205.216 105.934 205.216 102.343C205.216 98.7517 203.788 95.3077 201.245 92.768L162.002 53.5818L181.668 34.2019C184.568 34.923 187.626 34.6679 190.367 33.4763C193.108 32.2847 195.378 30.2232 196.825 27.6116C198.273 25 198.817 21.9844 198.372 19.0327C197.928 16.0809 196.521 13.3581 194.369 11.2866C192.217 9.21512 189.44 7.91084 186.469 7.57613C183.499 7.24141 180.501 7.89498 177.941 9.43541C175.38 10.9759 173.401 13.317 172.309 16.0957C171.217 18.8744 171.074 21.9352 171.903 24.8032L152.413 44.007L113.089 4.73268C110.545 2.19379 107.096 0.767517 103.5 0.767517C99.9039 0.767517 96.4548 2.19379 93.9115 4.73268L54.6684 43.9325L35.2604 24.2818C35.9788 21.3846 35.7196 18.3317 34.523 15.5967C33.3264 12.8617 31.2594 10.5974 28.6426 9.15514C26.0258 7.71289 23.0054 7.17329 20.0501 7.62005C17.0949 8.06681 14.3698 9.47495 12.2978 11.626C10.2258 13.7771 8.92255 16.5509 8.59034 19.517C8.25814 22.4832 8.91551 25.4759 10.4605 28.0309C12.0054 30.5859 14.3516 32.5603 17.1351 33.648C19.9185 34.7356 22.9836 34.8756 25.8548 34.0462L45.0797 53.5005L5.74844 92.768C3.20587 95.3077 1.77753 98.7517 1.77753 102.343C1.77753 105.934 3.20587 109.378 5.74844 111.918L45.0797 151.185L25.8548 170.639C22.9897 169.815 19.9323 169.958 17.1566 171.045C14.3809 172.133 12.0419 174.104 10.5022 176.654C8.96252 179.203 8.30807 182.189 8.64031 185.148C8.97256 188.107 10.2729 190.873 12.3399 193.019C14.4069 195.165 17.125 196.57 20.0729 197.017C23.0208 197.463 26.034 196.926 28.6452 195.489C31.2565 194.052 33.32 191.794 34.516 189.067C35.712 186.34 35.9737 183.295 35.2604 180.404L54.6684 160.767L93.9115 199.946C96.4548 202.485 99.9039 203.911 103.5 203.911C107.096 203.911 110.545 202.485 113.089 199.946L152.42 160.679L171.896 179.882C171.071 182.743 171.214 185.796 172.302 188.568C173.391 191.34 175.366 193.675 177.919 195.213C180.472 196.75 183.462 197.404 186.425 197.072C189.388 196.74 192.159 195.442 194.308 193.378C196.457 191.314 197.864 188.6 198.311 185.656C198.758 182.712 198.221 179.704 196.781 177.096C195.342 174.489 193.082 172.428 190.35 171.234C187.619 170.04 184.569 169.778 181.674 170.49L162.009 151.104L201.245 111.918ZM103.5 190.371L15.3439 102.343L103.5 14.3143L191.656 102.343L103.5 190.371Z" fill="#009FFF"/>
<path d="M161.651 53.2256L161.292 53.5794L161.649 53.9356L200.892 93.1218C203.34 95.5677 204.716 98.8846 204.716 102.343C204.716 105.801 203.34 109.118 200.892 111.564L161.655 150.75L161.299 151.106L161.658 151.46L181.323 170.847L181.522 171.043L181.794 170.976C184.582 170.29 187.519 170.542 190.15 171.692C192.78 172.842 194.957 174.827 196.344 177.338C197.73 179.849 198.247 182.746 197.817 185.581C197.386 188.416 196.031 191.029 193.962 193.017C191.892 195.005 189.224 196.256 186.37 196.575C183.516 196.895 180.636 196.265 178.177 194.784C175.718 193.304 173.816 191.054 172.768 188.385C171.719 185.716 171.582 182.776 172.376 180.021L172.459 179.735L172.247 179.526L152.771 160.323L152.418 159.974L152.067 160.325L112.736 199.592C110.286 202.038 106.964 203.411 103.5 203.411C100.036 203.411 96.7142 202.038 94.2647 199.592L55.0216 160.413L54.666 160.058L54.3128 160.415L34.9048 180.052L34.7079 180.252L34.775 180.524C35.4618 183.308 35.2099 186.24 34.0581 188.866C32.9064 191.493 30.9191 193.667 28.4041 195.051C25.8892 196.435 22.9871 196.952 20.1478 196.522C17.3085 196.092 14.6906 194.739 12.7 192.672C10.7094 190.606 9.45714 187.941 9.13719 185.092C8.81724 182.243 9.44746 179.368 10.9302 176.912C12.413 174.457 14.6656 172.558 17.339 171.511C20.0123 170.464 22.9571 170.326 25.7166 171.12L26.0019 171.202L26.2105 170.991L45.4353 151.537L45.785 151.183L45.433 150.831L6.10179 111.564C6.10177 111.564 6.10174 111.564 6.10171 111.564C3.653 109.118 2.27753 105.801 2.27753 102.343C2.27753 98.8846 3.653 95.5678 6.10171 93.1219C6.10174 93.1218 6.10177 93.1218 6.10179 93.1218L45.433 53.8543L45.785 53.5029L45.4353 53.1491L26.2105 33.6947L26.0016 33.4834L25.7161 33.5658C22.9505 34.3647 19.9981 34.2299 17.317 33.1823C14.636 32.1347 12.3763 30.2329 10.8883 27.7722C9.40038 25.3114 8.76731 22.4292 9.08724 19.5727C9.40717 16.7161 10.6622 14.0447 12.6579 11.9729C14.6536 9.90111 17.2783 8.54476 20.1249 8.11443C22.9715 7.6841 25.8807 8.20387 28.4012 9.59304C30.9217 10.9822 32.9125 13.163 34.0649 15.7971C35.2173 18.4312 35.467 21.3713 34.7751 24.1615L34.7076 24.4336L34.9047 24.6331L54.3126 44.2838L54.666 44.6416L55.0217 44.2862L94.2647 5.08654C96.7142 2.64131 100.036 1.26752 103.5 1.26752C106.964 1.26752 110.286 2.64127 112.735 5.08646C112.736 5.08649 112.736 5.08652 112.736 5.08654L152.06 44.3607L152.411 44.7113L152.764 44.3631L172.254 25.1593L172.466 24.9504L172.383 24.6645C171.585 21.9024 171.723 18.9546 172.774 16.2786C173.826 13.6025 175.732 11.3476 178.199 9.86385C180.665 8.38012 183.552 7.75057 186.413 8.07298C189.275 8.39539 191.949 9.6517 194.022 11.6468C196.095 13.642 197.45 16.2643 197.878 19.1071C198.306 21.9498 197.782 24.854 196.388 27.3692C194.994 29.8844 192.807 31.87 190.168 33.0178C187.528 34.1655 184.582 34.4112 181.788 33.7167L181.516 33.6491L181.317 33.8458L161.651 53.2256ZM103.147 190.725L103.5 191.078L103.853 190.725L192.01 102.697L192.364 102.343L192.01 101.989L103.853 13.9604L103.5 13.6077L103.147 13.9604L14.9906 101.989L14.6363 102.343L14.9906 102.697L103.147 190.725Z" stroke="url(#paint0_linear)" stroke-opacity="0.3"/>
</g>
<g clip-path="url(#clip0)">
<g filter="url(#filter1_d)">
<path d="M150.717 84.6742C147.462 60.5077 122.055 57.1855 109.758 58.5452V73.8698C111.603 81.2786 120.201 84.1598 124.27 84.6742H150.717Z" fill="#009FFF"/>
<path d="M110.258 73.8078V58.9956C116.347 58.3946 125.428 58.9455 133.425 62.4944C141.464 66.0616 148.396 72.6469 150.14 84.1742H124.302C122.323 83.9195 119.241 83.0892 116.435 81.4272C113.631 79.7671 111.15 77.3076 110.258 73.8078Z" stroke="url(#paint1_linear)" stroke-opacity="0.3"/>
<path d="M109.758 115.654C141.766 117.154 150.4 99.0066 150.717 89.7457H124.27C115.481 89.7457 110.933 96.7282 109.758 100.219V115.654Z" fill="#009FFF"/>
<path d="M124.27 90.2457H150.191C149.894 94.735 147.651 101.155 141.79 106.361C135.77 111.709 125.887 115.817 110.258 115.176V100.302C111.439 96.8911 115.849 90.2457 124.27 90.2457Z" stroke="url(#paint2_linear)" stroke-opacity="0.3"/>
<path d="M103.926 132.522V147.185H85.7525C75.7705 146.392 72.19 138.843 71.6475 135.168V120.395H89.9569C101.024 122.159 103.881 129.215 103.926 132.522Z" fill="#009FFF"/>
<path d="M89.9171 120.895C100.713 122.631 103.383 129.47 103.426 132.526V146.685H85.7725C76.1379 145.91 72.6846 138.661 72.1475 135.131V120.895H89.9171Z" stroke="url(#paint3_linear)" stroke-opacity="0.3"/>
<g filter="url(#filter2_d)">
<path d="M89.9569 115.654H71.6475V58.5452H89.1431C100.861 59.6918 103.881 66.8874 103.926 70.3419V104.519C102.299 112.457 93.9352 115.25 89.9569 115.654Z" fill="#009FFF"/>
<path d="M97.5585 112.488C94.8528 114.175 91.8572 114.954 89.9313 115.154H72.1475V59.0452H89.1186C100.568 60.1749 103.383 67.1552 103.426 70.3453V104.468C102.637 108.241 100.257 110.805 97.5585 112.488Z" stroke="url(#paint4_linear)" stroke-opacity="0.3"/>
</g>
</g>
</g>
<defs>
<filter id="filter0_d" x="0.777527" y="0.767517" width="205.438" height="208.144" filterUnits="userSpaceOnUse" color-interpolation-filters="sRGB">
<feFlood flood-opacity="0" result="BackgroundImageFix"/>
<feColorMatrix in="SourceAlpha" type="matrix" values="0 0 0 0 0 0 0 0 0 0 0 0 0 0 0 0 0 0 127 0" result="hardAlpha"/>
<feOffset dy="4"/>
<feGaussianBlur stdDeviation="0.5"/>
<feComposite in2="hardAlpha" operator="out"/>
<feColorMatrix type="matrix" values="0 0 0 0 0 0 0 0 0 0 0 0 0 0 0 0 0 0 0.25 0"/>
<feBlend mode="normal" in2="BackgroundImageFix" result="effect1_dropShadow"/>
<feBlend mode="normal" in="SourceGraphic" in2="effect1_dropShadow" result="shape"/>
</filter>
<filter id="filter1_d" x="67.6475" y="58.2859" width="87.0694" height="96.8996" filterUnits="userSpaceOnUse" color-interpolation-filters="sRGB">
<feFlood flood-opacity="0" result="BackgroundImageFix"/>
<feColorMatrix in="SourceAlpha" type="matrix" values="0 0 0 0 0 0 0 0 0 0 0 0 0 0 0 0 0 0 127 0" result="hardAlpha"/>
<feOffset dy="4"/>
<feGaussianBlur stdDeviation="2"/>
<feColorMatrix type="matrix" values="0 0 0 0 0 0 0 0 0 0 0 0 0 0 0 0 0 0 0.25 0"/>
<feBlend mode="normal" in2="BackgroundImageFix" result="effect1_dropShadow"/>
<feBlend mode="normal" in="SourceGraphic" in2="effect1_dropShadow" result="shape"/>
</filter>
<filter id="filter2_d" x="67.6475" y="58.5452" width="40.2787" height="65.109" filterUnits="userSpaceOnUse" color-interpolation-filters="sRGB">
<feFlood flood-opacity="0" result="BackgroundImageFix"/>
<feColorMatrix in="SourceAlpha" type="matrix" values="0 0 0 0 0 0 0 0 0 0 0 0 0 0 0 0 0 0 127 0" result="hardAlpha"/>
<feOffset dy="4"/>
<feGaussianBlur stdDeviation="2"/>
<feComposite in2="hardAlpha" operator="out"/>
<feColorMatrix type="matrix" values="0 0 0 0 0 0 0 0 0 0 0 0 0 0 0 0 0 0 0.25 0"/>
<feBlend mode="normal" in2="BackgroundImageFix" result="effect1_dropShadow"/>
<feBlend mode="normal" in="SourceGraphic" in2="effect1_dropShadow" result="shape"/>
</filter>
<linearGradient id="paint0_linear" x1="103.497" y1="0.767517" x2="103.497" y2="203.911" gradientUnits="userSpaceOnUse">
<stop stop-color="#282928"/>
<stop offset="1" stop-color="#333333"/>
</linearGradient>
<linearGradient id="paint1_linear" x1="130.237" y1="58.2859" x2="130.237" y2="84.6742" gradientUnits="userSpaceOnUse">
<stop stop-color="#333333"/>
<stop offset="1" stop-color="#282928"/>
</linearGradient>
<linearGradient id="paint2_linear" x1="130.237" y1="89.7457" x2="130.237" y2="115.742" gradientUnits="userSpaceOnUse">
<stop stop-color="#333333"/>
<stop offset="1" stop-color="#282928"/>
</linearGradient>
<linearGradient id="paint3_linear" x1="87.7869" y1="120.395" x2="87.8765" y2="147.147" gradientUnits="userSpaceOnUse">
<stop stop-color="#333333"/>
<stop offset="1" stop-color="#282928"/>
</linearGradient>
<linearGradient id="paint4_linear" x1="87.7869" y1="58.5452" x2="87.7869" y2="115.654" gradientUnits="userSpaceOnUse">
<stop stop-color="#333333"/>
<stop offset="1" stop-color="#282928"/>
</linearGradient>
<clipPath id="clip0">
<rect width="81.375" height="89.9633" fill="white" transform="translate(70.5625 57.8449)"/>
</clipPath>
</defs>
</svg>
