<svg width="40" height="32" viewBox="0 0 40 32" fill="none" xmlns="http://www.w3.org/2000/svg">
<path d="M39.3759 3.78809C37.927 4.43056 36.3701 4.86477 34.736 5.06011C36.4041 4.06033 37.6849 2.47714 38.288 0.590792C36.7023 1.53179 34.9674 2.19479 33.1582 2.55113C31.6845 0.981168 29.5851 0 27.2615 0C22.8 0 19.1828 3.61705 19.1828 8.07821C19.1828 8.71146 19.2544 9.32794 19.392 9.91934C12.6781 9.58234 6.72559 6.36628 2.74109 1.47875C2.04586 2.67187 1.64748 4.05972 1.64748 5.54001C1.64748 8.34277 3.07378 10.8153 5.2413 12.2641C3.95843 12.2239 2.70378 11.8774 1.58211 11.2535C1.58165 11.2874 1.58165 11.3212 1.58165 11.3552C1.58165 15.2692 4.36627 18.5344 8.06176 19.2765C6.87215 19.6 5.62434 19.6474 4.41364 19.4149C5.44157 22.6244 8.42506 24.9599 11.96 25.0252C9.1952 27.1918 5.71181 28.4834 1.92711 28.4834C1.27495 28.4834 0.632014 28.4451 0 28.3705C3.57506 30.6626 7.82135 32 12.3834 32C27.2427 32 35.3682 19.6903 35.3682 9.01508C35.3682 8.6647 35.3605 8.31632 35.3448 7.96993C36.9263 6.82662 38.2914 5.41052 39.3759 3.78809" fill="#55ACEE"/>
</svg>
